<svg xmlns="http://www.w3.org/2000/svg" xmlns:xlink="http://www.w3.org/1999/xlink" version="1.1" width="256" height="256" viewBox="0 0 256 256" xml:space="preserve">
<g style="stroke: none; stroke-width: 0; stroke-dasharray: none; stroke-linecap: butt; stroke-linejoin: miter; stroke-miterlimit: 10; fill: none; fill-rule: nonzero; opacity: 1;" transform="translate(1.4065934065934016 1.4065934065934016) scale(2.81 2.81)">
	<path d="M 60.916 81.42 H 11.618 c -1.8 0 -3.26 -1.459 -3.26 -3.26 V 9.161 c 0 -1.8 1.459 -3.26 3.26 -3.26 h 49.298 c 1.8 0 3.26 1.459 3.26 3.26 V 78.16 C 64.175 79.96 62.716 81.42 60.916 81.42 z" style="stroke: none; stroke-width: 1; stroke-dasharray: none; stroke-linecap: butt; stroke-linejoin: miter; stroke-miterlimit: 10; fill: rgb(195,217,245); fill-rule: nonzero; opacity: 1;" transform=" matrix(1 0 0 1 0 0) " stroke-linecap="round"/>
	<path d="M 60.916 82.42 H 11.618 c -2.349 0 -4.26 -1.911 -4.26 -4.26 V 9.161 c 0 -2.349 1.911 -4.259 4.26 -4.259 h 49.298 c 2.349 0 4.26 1.911 4.26 4.259 V 78.16 C 65.176 80.509 63.265 82.42 60.916 82.42 z M 11.618 6.902 c -1.246 0 -2.26 1.014 -2.26 2.259 V 78.16 c 0 1.246 1.014 2.26 2.26 2.26 h 49.298 c 1.246 0 2.26 -1.014 2.26 -2.26 V 9.161 c 0 -1.246 -1.014 -2.259 -2.26 -2.259 H 11.618 z" style="stroke: none; stroke-width: 1; stroke-dasharray: none; stroke-linecap: butt; stroke-linejoin: miter; stroke-miterlimit: 10; fill: rgb(0,0,0); fill-rule: nonzero; opacity: 1;" transform=" matrix(1 0 0 1 0 0) " stroke-linecap="round"/>
	<path d="M 60.916 5.902 H 11.618 c -1.8 0 -3.26 1.459 -3.26 3.26 v 9.642 h 55.817 V 9.161 C 64.175 7.361 62.716 5.902 60.916 5.902 z" style="stroke: none; stroke-width: 1; stroke-dasharray: none; stroke-linecap: butt; stroke-linejoin: miter; stroke-miterlimit: 10; fill: rgb(247,201,97); fill-rule: nonzero; opacity: 1;" transform=" matrix(1 0 0 1 0 0) " stroke-linecap="round"/>
	<path d="M 36.267 11.415 c -0.552 0 -1 -0.448 -1 -1 V 1 c 0 -0.552 0.448 -1 1 -1 s 1 0.448 1 1 v 9.415 C 37.267 10.967 36.819 11.415 36.267 11.415 z" style="stroke: none; stroke-width: 1; stroke-dasharray: none; stroke-linecap: butt; stroke-linejoin: miter; stroke-miterlimit: 10; fill: rgb(0,0,0); fill-rule: nonzero; opacity: 1;" transform=" matrix(1 0 0 1 0 0) " stroke-linecap="round"/>
	<path d="M 50.597 11.415 c -0.553 0 -1 -0.448 -1 -1 V 1 c 0 -0.552 0.447 -1 1 -1 s 1 0.448 1 1 v 9.415 C 51.597 10.967 51.149 11.415 50.597 11.415 z" style="stroke: none; stroke-width: 1; stroke-dasharray: none; stroke-linecap: butt; stroke-linejoin: miter; stroke-miterlimit: 10; fill: rgb(0,0,0); fill-rule: nonzero; opacity: 1;" transform=" matrix(1 0 0 1 0 0) " stroke-linecap="round"/>
	<path d="M 21.936 11.415 c -0.552 0 -1 -0.448 -1 -1 V 1 c 0 -0.552 0.448 -1 1 -1 s 1 0.448 1 1 v 9.415 C 22.936 10.967 22.488 11.415 21.936 11.415 z" style="stroke: none; stroke-width: 1; stroke-dasharray: none; stroke-linecap: butt; stroke-linejoin: miter; stroke-miterlimit: 10; fill: rgb(0,0,0); fill-rule: nonzero; opacity: 1;" transform=" matrix(1 0 0 1 0 0) " stroke-linecap="round"/>
	<path d="M 53.202 30.233 H 29.297 c -0.552 0 -1 -0.448 -1 -1 s 0.448 -1 1 -1 h 23.905 c 0.553 0 1 0.448 1 1 S 53.755 30.233 53.202 30.233 z" style="stroke: none; stroke-width: 1; stroke-dasharray: none; stroke-linecap: butt; stroke-linejoin: miter; stroke-miterlimit: 10; fill: rgb(0,0,0); fill-rule: nonzero; opacity: 1;" transform=" matrix(1 0 0 1 0 0) " stroke-linecap="round"/>
	<path d="M 48.219 43.261 H 29.297 c -0.552 0 -1 -0.448 -1 -1 s 0.448 -1 1 -1 h 18.921 c 0.553 0 1 0.448 1 1 S 48.771 43.261 48.219 43.261 z" style="stroke: none; stroke-width: 1; stroke-dasharray: none; stroke-linecap: butt; stroke-linejoin: miter; stroke-miterlimit: 10; fill: rgb(0,0,0); fill-rule: nonzero; opacity: 1;" transform=" matrix(1 0 0 1 0 0) " stroke-linecap="round"/>
	<path d="M 39.249 56.289 h -9.952 c -0.552 0 -1 -0.447 -1 -1 s 0.448 -1 1 -1 h 9.952 c 0.552 0 1 0.447 1 1 S 39.801 56.289 39.249 56.289 z" style="stroke: none; stroke-width: 1; stroke-dasharray: none; stroke-linecap: butt; stroke-linejoin: miter; stroke-miterlimit: 10; fill: rgb(0,0,0); fill-rule: nonzero; opacity: 1;" transform=" matrix(1 0 0 1 0 0) " stroke-linecap="round"/>
	<path d="M 32.272 69.316 h -2.975 c -0.552 0 -1 -0.447 -1 -1 s 0.448 -1 1 -1 h 2.975 c 0.552 0 1 0.447 1 1 S 32.824 69.316 32.272 69.316 z" style="stroke: none; stroke-width: 1; stroke-dasharray: none; stroke-linecap: butt; stroke-linejoin: miter; stroke-miterlimit: 10; fill: rgb(0,0,0); fill-rule: nonzero; opacity: 1;" transform=" matrix(1 0 0 1 0 0) " stroke-linecap="round"/>
	<path d="M 22.912 30.233 h -3.582 c -0.552 0 -1 -0.448 -1 -1 s 0.448 -1 1 -1 h 3.582 c 0.552 0 1 0.448 1 1 S 23.464 30.233 22.912 30.233 z" style="stroke: none; stroke-width: 1; stroke-dasharray: none; stroke-linecap: butt; stroke-linejoin: miter; stroke-miterlimit: 10; fill: rgb(0,0,0); fill-rule: nonzero; opacity: 1;" transform=" matrix(1 0 0 1 0 0) " stroke-linecap="round"/>
	<path d="M 22.912 43.261 h -3.582 c -0.552 0 -1 -0.448 -1 -1 s 0.448 -1 1 -1 h 3.582 c 0.552 0 1 0.448 1 1 S 23.464 43.261 22.912 43.261 z" style="stroke: none; stroke-width: 1; stroke-dasharray: none; stroke-linecap: butt; stroke-linejoin: miter; stroke-miterlimit: 10; fill: rgb(0,0,0); fill-rule: nonzero; opacity: 1;" transform=" matrix(1 0 0 1 0 0) " stroke-linecap="round"/>
	<path d="M 22.912 56.289 h -3.582 c -0.552 0 -1 -0.447 -1 -1 s 0.448 -1 1 -1 h 3.582 c 0.552 0 1 0.447 1 1 S 23.464 56.289 22.912 56.289 z" style="stroke: none; stroke-width: 1; stroke-dasharray: none; stroke-linecap: butt; stroke-linejoin: miter; stroke-miterlimit: 10; fill: rgb(0,0,0); fill-rule: nonzero; opacity: 1;" transform=" matrix(1 0 0 1 0 0) " stroke-linecap="round"/>
	<path d="M 22.912 69.316 h -3.582 c -0.552 0 -1 -0.447 -1 -1 s 0.448 -1 1 -1 h 3.582 c 0.552 0 1 0.447 1 1 S 23.464 69.316 22.912 69.316 z" style="stroke: none; stroke-width: 1; stroke-dasharray: none; stroke-linecap: butt; stroke-linejoin: miter; stroke-miterlimit: 10; fill: rgb(0,0,0); fill-rule: nonzero; opacity: 1;" transform=" matrix(1 0 0 1 0 0) " stroke-linecap="round"/>
	<path d="M 64.176 19.803 H 8.358 c -0.552 0 -1 -0.448 -1 -1 V 9.161 c 0 -2.349 1.911 -4.26 4.26 -4.26 h 49.298 c 2.349 0 4.26 1.911 4.26 4.26 v 9.642 C 65.176 19.355 64.729 19.803 64.176 19.803 z M 9.358 17.803 h 53.818 V 9.161 c 0 -1.246 -1.014 -2.26 -2.26 -2.26 H 11.618 c -1.246 0 -2.26 1.014 -2.26 2.26 V 17.803 z" style="stroke: none; stroke-width: 1; stroke-dasharray: none; stroke-linecap: butt; stroke-linejoin: miter; stroke-miterlimit: 10; fill: rgb(0,0,0); fill-rule: nonzero; opacity: 1;" transform=" matrix(1 0 0 1 0 0) " stroke-linecap="round"/>
	<path d="M 68.084 28.732 L 37.554 73.006 L 36.213 89 l 14.473 -6.939 l 30.529 -44.274 c 0.757 -1.098 0.481 -2.603 -0.617 -3.36 l -9.153 -6.312 C 70.346 27.357 68.841 27.633 68.084 28.732 z" style="stroke: none; stroke-width: 1; stroke-dasharray: none; stroke-linecap: butt; stroke-linejoin: miter; stroke-miterlimit: 10; fill: rgb(236,130,186); fill-rule: nonzero; opacity: 1;" transform=" matrix(1 0 0 1 0 0) " stroke-linecap="round"/>
	<path d="M 73.532 48.929 L 60.4 39.874 l 7.683 -11.142 c 0.757 -1.098 2.262 -1.375 3.36 -0.617 l 9.153 6.312 c 1.098 0.757 1.375 2.262 0.617 3.36 L 73.532 48.929 z" style="stroke: none; stroke-width: 1; stroke-dasharray: none; stroke-linecap: butt; stroke-linejoin: miter; stroke-miterlimit: 10; fill: rgb(247,201,97); fill-rule: nonzero; opacity: 1;" transform=" matrix(1 0 0 1 0 0) " stroke-linecap="round"/>
	<path d="M 36.213 90 c -0.199 0 -0.398 -0.06 -0.568 -0.177 c -0.295 -0.203 -0.458 -0.55 -0.429 -0.907 l 1.341 -15.994 c 0.015 -0.173 0.074 -0.34 0.173 -0.483 l 30.53 -44.274 c 0.518 -0.751 1.297 -1.255 2.194 -1.42 c 0.898 -0.165 1.806 0.029 2.557 0.547 l 9.153 6.312 c 0.752 0.518 1.256 1.297 1.421 2.195 s -0.029 1.805 -0.548 2.557 L 51.509 82.628 c -0.099 0.144 -0.233 0.259 -0.391 0.334 l -14.473 6.939 C 36.508 89.968 36.36 90 36.213 90 z M 38.528 73.354 l -1.173 13.988 l 12.658 -6.069 l 30.378 -44.055 c 0.215 -0.312 0.296 -0.688 0.228 -1.06 s -0.277 -0.695 -0.589 -0.91 l -9.153 -6.312 c -0.313 -0.215 -0.69 -0.294 -1.061 -0.227 c -0.372 0.068 -0.694 0.277 -0.909 0.589 c 0 0 0 0 0 0 L 38.528 73.354 z M 68.084 28.732 h 0.01 H 68.084 z" style="stroke: none; stroke-width: 1; stroke-dasharray: none; stroke-linecap: butt; stroke-linejoin: miter; stroke-miterlimit: 10; fill: rgb(0,0,0); fill-rule: nonzero; opacity: 1;" transform=" matrix(1 0 0 1 0 0) " stroke-linecap="round"/>
	<path d="M 73.53 49.929 c -0.195 0 -0.394 -0.058 -0.566 -0.177 l -13.131 -9.055 c -0.219 -0.15 -0.368 -0.382 -0.416 -0.643 s 0.01 -0.53 0.16 -0.749 l 7.684 -11.142 c 0.518 -0.751 1.297 -1.255 2.194 -1.42 c 0.898 -0.165 1.806 0.029 2.557 0.547 l 9.153 6.312 c 0.752 0.518 1.256 1.297 1.421 2.195 s -0.029 1.805 -0.548 2.557 l -7.684 11.142 C 74.16 49.777 73.848 49.929 73.53 49.929 z M 61.791 39.619 l 11.484 7.919 l 7.116 -10.319 c 0.215 -0.312 0.296 -0.688 0.228 -1.06 s -0.277 -0.695 -0.589 -0.91 l -9.153 -6.312 c -0.313 -0.215 -0.69 -0.294 -1.061 -0.227 c -0.372 0.068 -0.694 0.277 -0.909 0.589 L 61.791 39.619 z" style="stroke: none; stroke-width: 1; stroke-dasharray: none; stroke-linecap: butt; stroke-linejoin: miter; stroke-miterlimit: 10; fill: rgb(0,0,0); fill-rule: nonzero; opacity: 1;" transform=" matrix(1 0 0 1 0 0) " stroke-linecap="round"/>
	<polygon points="36.21,89 37.55,73.01 50.69,82.06 " style="stroke: none; stroke-width: 1; stroke-dasharray: none; stroke-linecap: butt; stroke-linejoin: miter; stroke-miterlimit: 10; fill: rgb(247,201,97); fill-rule: nonzero; opacity: 1;" transform="  matrix(1 0 0 1 0 0) "/>
	<path d="M 36.213 90 c -0.199 0 -0.398 -0.06 -0.568 -0.177 c -0.295 -0.203 -0.458 -0.55 -0.429 -0.907 l 1.341 -15.994 c 0.03 -0.354 0.247 -0.668 0.569 -0.82 s 0.702 -0.121 0.996 0.081 l 13.131 9.055 c 0.294 0.202 0.457 0.546 0.43 0.901 c -0.028 0.355 -0.243 0.669 -0.564 0.823 l -14.473 6.939 C 36.508 89.968 36.36 90 36.213 90 z M 38.407 74.809 l -1.051 12.534 l 11.343 -5.438 L 38.407 74.809 z" style="stroke: none; stroke-width: 1; stroke-dasharray: none; stroke-linecap: butt; stroke-linejoin: miter; stroke-miterlimit: 10; fill: rgb(0,0,0); fill-rule: nonzero; opacity: 1;" transform=" matrix(1 0 0 1 0 0) " stroke-linecap="round"/>
</g>
</svg>